<?xml version="1.0" encoding="UTF-8"?>
<svg width="50px" height="50px" viewBox="0 0 50 50" version="1.1" xmlns="http://www.w3.org/2000/svg" xmlns:xlink="http://www.w3.org/1999/xlink">
    <!-- Generator: Sketch 56.3 (81716) - https://sketch.com -->
    <title>Codepen</title>
    <desc>Created with Sketch.</desc>
    <g id="Page-1" stroke="none" stroke-width="1" fill="none" fill-rule="evenodd">
        <g id="Mobile" transform="translate(-198.000000, -400.000000)" fill="#FFFFFF" fill-rule="nonzero">
            <g id="Codepen" transform="translate(198.000000, 400.000000)">
                <path d="M38.8361215,20.4846251 C38.8361215,20.4846251 38.8361215,20.4846251 38.8361215,20.4846251 C38.8361215,20.4030317 38.8361215,20.4030317 38.8361215,20.3214382 C38.8361215,20.3214382 38.8361215,20.3214382 38.8361215,20.2398447 C38.8361215,20.2398447 38.8361215,20.1582513 38.8361215,20.1582513 C38.8361215,20.1582513 38.8361215,20.1582513 38.8361215,20.0766578 C38.8361215,20.0766578 38.8361215,19.9950643 38.7557499,19.9950643 C38.7557499,19.9950643 38.7557499,19.9950643 38.7557499,19.9134708 C38.7557499,19.9134708 38.7557499,19.8318774 38.6753783,19.8318774 C38.6753783,19.8318774 38.6753783,19.8318774 38.5950067,19.7502839 C38.5950067,19.7502839 38.5950067,19.6686904 38.5146351,19.6686904 C38.5146351,19.6686904 38.5146351,19.6686904 38.4342635,19.5870969 C38.4342635,19.5870969 38.3538919,19.5870969 38.3538919,19.5055035 C38.3538919,19.5055035 38.3538919,19.5055035 38.2735203,19.42391 C38.2735203,19.42391 38.2735203,19.42391 38.2735203,19.42391 L25.655179,11.0197823 C25.253321,10.7750019 24.6907198,10.7750019 24.2888618,11.0197823 L11.5901489,19.6686904 C11.5901489,19.6686904 11.5901489,19.6686904 11.5901489,19.6686904 C11.5901489,19.6686904 11.5901489,19.6686904 11.5097773,19.7502839 C11.5097773,19.7502839 11.4294057,19.7502839 11.4294057,19.8318774 C11.4294057,19.8318774 11.4294057,19.8318774 11.3490341,19.9134708 C11.3490341,19.9134708 11.2686625,19.9950643 11.2686625,19.9950643 C11.2686625,19.9950643 11.2686625,19.9950643 11.1882909,20.0766578 C11.1882909,20.0766578 11.1882909,20.1582513 11.1079193,20.1582513 C11.1079193,20.1582513 11.1079193,20.1582513 11.1079193,20.2398447 C11.1079193,20.2398447 11.1079193,20.3214382 11.0275477,20.3214382 C11.0275477,20.3214382 11.0275477,20.3214382 11.0275477,20.4030317 C11.0275477,20.4030317 11.0275477,20.4846251 11.0275477,20.4846251 C11.0275477,20.4846251 11.0275477,20.4846251 11.0275477,20.5662186 C11.0275477,20.5662186 11.0275477,20.6478121 11.0275477,20.6478121 C11.0275477,20.6478121 11.0275477,20.6478121 11.0275477,20.7294056 C11.0275477,20.810999 11.0275477,20.810999 11.0275477,20.8925925 L11.0275477,29.4599071 C11.0275477,29.5415006 11.0275477,29.5415006 11.0275477,29.6230941 C11.0275477,29.6230941 11.0275477,29.6230941 11.0275477,29.7046875 C11.0275477,29.7046875 11.0275477,29.786281 11.0275477,29.786281 C11.0275477,29.786281 11.0275477,29.786281 11.0275477,29.8678745 C11.0275477,29.8678745 11.0275477,29.949468 11.0275477,29.949468 C11.0275477,29.949468 11.0275477,29.949468 11.0275477,30.0310614 C11.0275477,30.0310614 11.0275477,30.1126549 11.1079193,30.1126549 C11.1079193,30.1126549 11.1079193,30.1126549 11.1079193,30.1942484 C11.1079193,30.1942484 11.1079193,30.2758419 11.1882909,30.2758419 C11.1882909,30.2758419 11.1882909,30.2758419 11.2686625,30.3574353 C11.2686625,30.3574353 11.2686625,30.4390288 11.3490341,30.4390288 C11.3490341,30.4390288 11.3490341,30.4390288 11.4294057,30.5206223 C11.4294057,30.5206223 11.5097773,30.5206223 11.5097773,30.6022157 C11.5097773,30.6022157 11.5097773,30.6022157 11.5901489,30.6838092 C11.5901489,30.6838092 11.5901489,30.6838092 11.5901489,30.6838092 L24.2888618,38.9247499 C24.449605,39.0879369 24.6907198,39.1695304 24.9318346,39.1695304 C25.1729494,39.1695304 25.4140642,39.0879369 25.5748074,38.9247499 L38.2735203,30.2758419 C38.2735203,30.2758419 38.2735203,30.2758419 38.2735203,30.2758419 C38.2735203,30.2758419 38.2735203,30.2758419 38.3538919,30.1942484 C38.3538919,30.1942484 38.4342635,30.1942484 38.4342635,30.1126549 C38.4342635,30.1126549 38.4342635,30.1126549 38.5146351,30.0310614 C38.5146351,30.0310614 38.5950067,29.949468 38.5950067,29.949468 C38.5950067,29.949468 38.5950067,29.949468 38.6753783,29.8678745 C38.6753783,29.8678745 38.6753783,29.786281 38.7557499,29.786281 C38.7557499,29.786281 38.7557499,29.786281 38.7557499,29.7046875 C38.7557499,29.7046875 38.7557499,29.6230941 38.8361215,29.6230941 C38.8361215,29.6230941 38.8361215,29.6230941 38.8361215,29.5415006 C38.8361215,29.5415006 38.8361215,29.4599071 38.8361215,29.4599071 C38.8361215,29.4599071 38.8361215,29.4599071 38.8361215,29.3783137 C38.8361215,29.3783137 38.8361215,29.2967202 38.8361215,29.2967202 C38.8361215,29.2967202 38.8361215,29.2967202 38.8361215,29.2151267 C38.8361215,29.1335332 38.8361215,29.1335332 38.8361215,29.0519398 L38.8361215,20.6478121 C38.9164931,20.6478121 38.9164931,20.5662186 38.8361215,20.4846251 L38.8361215,20.4846251 Z M25.3842293,15.0028637 L34.6738468,21.304947 L30.5451279,24.1695304 L25.3842293,20.6501851 L25.3842293,15.0028637 L25.3842293,15.0028637 Z M24.5397186,15.0028637 L24.5397186,20.6501851 L19.37882,24.1695304 L15.2501011,21.304947 L24.5397186,15.0028637 L24.5397186,15.0028637 Z M13.5610798,23.336197 L16.9391225,25.4195304 L13.5610798,27.5028637 L13.5610798,23.336197 Z M24.5397186,35.0028637 L15.2501011,28.6754301 L19.37882,25.836197 L24.5397186,29.3243976 L24.5397186,35.0028637 L24.5397186,35.0028637 Z M25.3842293,28.336197 L21.1616759,25.4195304 L25.3842293,22.5028637 L29.6067827,25.4195304 L25.3842293,28.336197 Z M25.3842293,35.0028637 L25.3842293,29.3555423 L30.5451279,25.836197 L34.6738468,28.7007804 L25.3842293,35.0028637 L25.3842293,35.0028637 Z M36.3628682,27.5028637 L32.9848254,25.4195304 L36.3628682,23.336197 L36.3628682,27.5028637 Z" id="svg_2"></path>
                <path d="M24.9565058,0.0550557552 C11.4040913,0.0550557552 0.417678344,11.2245756 0.417678344,25.0028637 C0.417678344,38.7811518 11.4040913,49.9506716 24.9565058,49.9506716 C38.5089203,49.9506716 49.4953333,38.7811518 49.4953333,25.0028637 C49.4953333,11.2245756 38.5089203,0.0550557552 24.9565058,0.0550557552 Z M41.2190747,41.5364754 C36.8751889,45.9527593 31.0997345,48.3849096 24.9565058,48.3849096 C18.8132771,48.3849096 13.0378228,45.9527593 8.69393694,41.5364754 C4.35005111,37.1201915 1.95777212,31.2484796 1.95777212,25.0028637 C1.95777212,18.7572478 4.35005111,12.8855359 8.69393694,8.469252 C13.0378228,4.05296807 18.8132771,1.62081776 24.9565058,1.62081776 C31.0997345,1.62081776 36.8751889,4.05296807 41.2190747,8.469252 C45.5629605,12.8855359 47.9552395,18.7572478 47.9552395,25.0028637 C47.9552395,31.2484796 45.5629605,37.1201915 41.2190747,41.5364754 Z" id="svg_1"></path>
            </g>
        </g>
    </g>
</svg>