<?xml version="1.0" encoding="UTF-8"?>
<svg width="70px" height="62px" viewBox="0 0 70 62" version="1.1" xmlns="http://www.w3.org/2000/svg" xmlns:xlink="http://www.w3.org/1999/xlink">
    <!-- Generator: Sketch 56.3 (81716) - https://sketch.com -->
    <title>iconfinder_fox_3406441</title>
    <desc>Created with Sketch.</desc>
    <g id="Page-1" stroke="none" stroke-width="1" fill="none" fill-rule="evenodd">
        <g id="Mobile" transform="translate(-248.000000, -652.000000)" fill="#FFFFFF" fill-rule="nonzero">
            <g id="iconfinder_fox_3406441" transform="translate(248.000000, 652.000000)">
                <path d="M7.07166159,28 L7.07083749,28 C6.47946225,28 6,28.4200307 6,28.9382466 L6,30.6407498 C6,33.3798291 8.0119614,35.7488368 11.0067462,36.535907 L12.6206666,36.960125 C13.1873188,37.1091355 13.7844627,36.8275749 13.9543925,36.3313063 L13.9545573,36.3305844 C14.124487,35.8343157 13.8030874,35.3111905 13.2366001,35.1623244 L11.6225149,34.7381064 C9.5571517,34.1950554 8.14282871,32.5296605 8.14282871,30.6406054 L8.14282871,28.9382466 C8.14266389,28.4200307 7.66320164,28 7.07166159,28 Z" id="Path"></path>
                <path d="M10.3697079,41.8666274 L10.4190463,41.8801058 L12.6152755,49.3378266 L11.8400218,60.0743614 L10.619232,60.0743614 C10.0841116,60.0743614 9.65035114,60.5053751 9.65035114,61.0371067 C9.65035114,61.5688383 10.0841116,62 10.619232,62 L21.4016831,62 L24.085632,48.3464952 L22.823553,39.6909712 C22.6932758,38.7982842 22.0541125,38.0617101 21.1846538,37.8025094 L16.6966487,36.4645898 C16.1841853,36.3118836 15.6442951,36.6007072 15.4906157,37.1097772 L15.4903176,37.1105178 C15.3367872,37.6195879 15.6274515,38.1560591 16.1397659,38.3087653 L20.6277709,39.646685 C20.7745936,39.6905269 20.8837045,39.8162762 20.9057652,39.967057 L22.1204436,48.2985061 L19.8057128,60.0742133 L17.7762801,60.0742133 L19.3147138,48.2752521 L17.8402262,41.8903257 L10.8876865,40.0111951 C5.61786914,38.5285675 1.93761259,33.6923279 1.93761259,28.2502994 L1.93761259,22.6567496 C2.28506816,22.9980057 2.67098085,23.3040106 3.09490347,23.5614339 L5.79986968,25.2037291 C6.83985145,25.8351419 8.00578773,26.1507742 9.17172401,26.1507742 C10.3376603,26.1507742 11.5035966,25.8351419 12.5434293,25.2037291 L15.2483955,23.5614339 L15.2483955,23.5614339 C16.3846691,22.8715158 17.2618789,21.8465624 17.7882048,20.6620896 C20.3467955,24.181738 24.5058282,26.3542837 28.9616366,26.3542837 L41.0283765,26.3542837 C46.1562901,26.3542837 49.9881392,31.611317 49.9881392,36.3118836 C49.9881392,38.5961077 49.1183823,40.7682091 47.5389575,42.42813 L47.0349904,42.9579361 L46.9801369,43.0497672 C45.7027048,45.1851361 45.9926237,47.9144448 47.7202128,49.7100387 C48.1904926,50.1989652 48.3510287,50.9031022 48.1390674,51.5451792 L45.3237978,60.0743614 L43.2044828,60.0743614 L45.8706938,51.4358706 L45.026426,51.1138694 C41.0619147,49.6017669 37.8579003,47.0670809 35.503669,43.580462 C34.3852824,41.9240958 33.7344926,40.4331738 33.4055203,39.5545577 C33.2320161,39.0911069 32.7353529,38.832795 32.2534464,38.9572113 L32.2513596,38.9578037 C31.6980541,39.1007344 31.3866708,39.6871203 31.5853659,40.2197406 C31.7351697,40.6209831 31.9410196,41.1260541 32.214244,41.7053305 L26.064981,41.7053305 C25.5301588,41.7053305 25.0965474,42.136196 25.0965474,42.6676314 L25.0965474,42.6685201 C25.0965474,43.1999554 25.5301588,43.630821 26.064981,43.630821 L28.7829153,43.630821 C30.3550363,46.0396095 32.2041081,48.0327884 34.2857112,49.5604429 C35.9095555,50.7523215 37.6475786,51.6318263 39.4830861,52.2010309 L36.9450655,60.0743614 L35.5048614,60.0743614 C34.9698902,60.0743614 34.5361297,60.5053751 34.5361297,61.0371067 C34.5361297,61.5688383 34.9698902,62 35.5048614,62 L46.7274826,62 L49.98009,52.1454879 C50.4129562,50.8339327 50.0887537,49.3960356 49.1340335,48.3934476 C48.0375585,47.2424486 47.8221688,45.4991392 48.5951867,44.1206361 L48.946965,43.7509419 C49.3290021,43.3491069 49.6755633,42.9219442 49.9878411,42.4749342 L49.9878411,46.7696667 C49.9878411,54.5890834 55.9489922,61.0496964 63.5925675,61.903133 L63.6535325,61.9177964 L63.7204598,61.9177964 C64.2448479,61.9718582 64.7766889,62 65.3149395,62 L69.0011584,62 C69.5528242,62 70,61.555656 70,61.0076318 C70,60.5046345 69.6212421,60.0822115 69.1187656,60.0229656 C65.4291184,59.5886935 62.5581009,56.4611045 62.5581009,52.6798856 L62.5581009,42.607645 C62.5581009,33.2728672 55.4399571,25.560093 46.3141431,24.5440264 L46.2613764,24.5182545 L46.0749041,24.5182545 C45.4788188,24.4597492 44.8746843,24.4292376 44.2636932,24.4292376 L41.0277803,24.4292376 L28.9610403,24.4292376 C24.4651352,24.4292376 20.3213064,21.855005 18.3428518,17.8548726 L18.3428518,12.4292848 C18.3428518,12.4079563 18.3413612,12.386924 18.3412121,12.3655955 L18.3428518,12.3655955 L18.3428518,1.85656476 C18.3428518,1.35593724 18.1581682,0.864048486 17.7972974,0.514646024 C17.1922685,-0.070851192 16.2868867,-0.155572772 15.5954039,0.255149155 C14.4767192,0.918999021 13.5164838,1.77213941 12.74123,2.7910201 C12.0148675,3.74532279 11.4657357,4.84418539 11.1243915,6.00333065 L7.21875838,6.00333065 C6.87741422,4.84433351 6.32828238,3.74547091 5.60191987,2.7910201 C4.83724932,1.78635842 3.8928141,0.94284548 2.7942523,0.28299471 C2.39626587,0.0440857773 1.92225956,-0.058113332 1.46658745,0.0329771784 C0.587588956,0.208789269 0,0.967876856 0,1.80502086 L0,12.3654474 L0.00163964447,12.3654474 C0.0013415273,12.3867759 0,12.4078082 0,12.4291367 L0,18.0782295 C0,18.1930183 0.00506799201,18.3072147 0.0113284527,18.421263 L0,18.421263 L0,28.2502994 C0,34.5499117 4.26024352,40.1479049 10.3697079,41.8666274 Z M16.211314,43.4455295 L17.3484819,48.3698973 L15.8224201,60.0742133 L13.7828514,60.0742133 L14.573011,49.1295774 L12.6127415,42.4727125 L16.211314,43.4455295 Z M31.1320787,43.6306729 L33.244537,43.6306729 C33.4304131,43.9406768 33.6310459,44.2591233 33.8488205,44.584235 C34.9467861,46.2234198 36.6123668,48.223412 39.009527,50.0028614 C35.5091841,48.6323565 32.9401594,46.1123338 31.1320787,43.6306729 Z M38.9803115,60.0743614 L41.3674848,52.6693694 C42.0285596,52.7939339 42.7003667,52.8808772 43.3833531,52.9290144 L41.1780313,60.0743614 L38.9803115,60.0743614 Z M55.154808,40.7779847 C55.1813404,41.2866104 55.6085423,41.6828171 56.1208567,41.6828171 C56.6780377,41.6828171 57.1183568,41.2168484 57.0888432,40.6639364 C56.9150409,37.4108943 55.9106841,34.2667165 54.1577551,31.5138576 C53.3003701,30.1676435 52.2805112,28.9415504 51.1284374,27.8569069 C56.7281214,30.4400264 60.6212336,36.0800842 60.6212336,42.6074968 L60.6212336,52.6797375 C60.6212336,55.6639515 62.0399733,58.3249793 64.242612,60.0321487 C64.1293275,60.0231138 64.0175335,60.009191 63.9048453,59.9974899 L63.8783128,59.991121 L63.8434331,59.991121 C63.8322537,59.989788 63.8209253,59.9887512 63.8095968,59.9877143 C59.9874365,59.422657 57.1159718,56.1158493 57.1159718,52.2602768 L57.1159718,45.2812625 C57.1159718,44.7498272 56.6825095,44.3189616 56.1475382,44.3189616 L56.1467929,44.3189616 C55.6119707,44.3189616 55.1782102,44.7498272 55.1782102,45.2812625 L55.1782102,52.2602768 C55.1782102,53.7469035 55.5220884,55.1676193 56.1365079,56.4425902 C53.5472111,54.014991 51.926348,50.5779906 51.926348,46.7698148 L51.926348,36.3121798 C51.926348,33.6585577 50.9571691,30.9430237 49.2513426,28.7509269 C52.7574987,31.7612091 54.9097557,36.0637916 55.154808,40.7779847 Z M14.2874148,3.95253519 C14.8688923,3.18841171 15.5809452,2.53922519 16.4059845,2.02052768 L16.4059845,7.84824675 C15.5202784,6.9834053 14.3857934,6.3697663 13.120286,6.12374786 C13.3970878,5.34333177 13.7904534,4.60542457 14.2874148,3.95253519 Z M1.93776165,2.02052768 C2.76280094,2.53922519 3.47485382,3.18841171 4.05648043,3.95253519 C4.55344176,4.60557269 4.94680738,5.34347988 5.22346012,6.12374786 C3.9579527,6.3697663 2.82346778,6.9834053 1.93776165,7.84824675 L1.93776165,2.02052768 Z M1.93776165,12.4292848 C1.93776165,9.94777192 3.96943021,7.92882112 6.46690686,7.92882112 L11.8768393,7.92882112 C14.3743159,7.92882112 16.4059845,9.94762381 16.4059845,12.4292848 L16.4059845,14.5422884 L15.1513583,14.5394742 C12.6558195,14.5394742 10.5992581,16.4430437 10.3747759,18.865607 L9.15249545,19.9856499 L7.98924223,18.987061 L7.98924223,18.763556 C7.98924223,17.1677687 7.25155127,14.4904483 2.31025906,14.4904483 L1.93776165,14.4904483 L1.93776165,12.4292848 Z M1.93776165,16.4159387 L2.31025906,16.4159387 C6.05148058,16.4159387 6.05148058,18.0610482 6.05148058,18.763556 L6.05148058,19.868195 L7.88564651,21.4426538 C8.24979664,21.7553238 8.70084793,21.9109923 9.15130299,21.9109923 C9.62217907,21.9109923 10.092608,21.7408086 10.4630186,21.4020704 L12.2922656,19.7282267 L12.2922656,19.3059518 C12.2922656,17.7394913 13.5747657,16.4649647 15.1513583,16.4649647 L16.4059845,16.4677789 L16.4059845,18.0783776 C16.4059845,19.6353588 15.57543,21.1068779 14.2383745,21.9185461 L11.5334083,23.5609895 C10.0769568,24.4455302 8.2672365,24.4453821 6.81048691,23.5609895 L4.1055207,21.9185461 C2.76846517,21.1068779 1.93791071,19.6353588 1.93791071,18.0783776 L1.93791071,16.4159387 L1.93776165,16.4159387 Z" id="Shape"></path>
            </g>
        </g>
    </g>
</svg>