<?xml version="1.0" encoding="UTF-8"?>
<svg width="50px" height="50px" viewBox="0 0 50 50" version="1.1" xmlns="http://www.w3.org/2000/svg" xmlns:xlink="http://www.w3.org/1999/xlink">
    <!-- Generator: Sketch 56.3 (81716) - https://sketch.com -->
    <title>Github</title>
    <desc>Created with Sketch.</desc>
    <g id="Page-1" stroke="none" stroke-width="1" fill="none" fill-rule="evenodd">
        <g id="Mobile" transform="translate(-15.000000, -400.000000)" fill="#FFFFFF" fill-rule="nonzero">
            <g id="Github" transform="translate(15.000000, 400.000000)">
                <path d="M24.9944407,0.0521920668 C11.2161526,0.0521920668 0.0466327766,11.2217119 0.0466327766,25 C0.0466327766,38.7782881 11.2161526,49.9478079 24.9944407,49.9478079 C38.7727288,49.9478079 49.9422486,38.7782881 49.9422486,25 C49.9422486,11.2217119 38.7727288,0.0521920668 24.9944407,0.0521920668 Z M41.5280524,41.5336117 C37.1117685,45.9498956 31.2400566,48.3820459 24.9944407,48.3820459 C18.7488248,48.3820459 12.8771129,45.9498956 8.46082902,41.5336117 C4.04454509,37.1173278 1.61239478,31.2456159 1.61239478,25 C1.61239478,18.7543841 4.04454509,12.8826722 8.46082902,8.46638831 C12.8771129,4.05010438 18.7488248,1.61795407 24.9944407,1.61795407 C31.2400566,1.61795407 37.1117685,4.05010438 41.5280524,8.46638831 C45.9443363,12.8826722 48.3764866,18.7543841 48.3764866,25 C48.3764866,31.2456159 45.9443363,37.1173278 41.5280524,41.5336117 Z" id="svg_1"></path>
                <path d="M24.9422486,10.6685804 C17.0122904,10.6685804 10.5828541,17.0980167 10.5828541,25.0279749 C10.5828541,31.3732777 14.6968415,36.7545929 20.403209,38.6529228 C21.1210587,38.7844468 21.3830628,38.3409186 21.3830628,37.9623173 C21.3830628,37.6204593 21.3699104,36.4882046 21.3629167,35.2892484 C17.3699104,36.1568894 16.5258603,33.5960334 16.5258603,33.5960334 C15.8721025,31.9377871 14.9316015,31.4961378 14.9316015,31.4961378 C13.626591,30.6057411 15.0305576,30.6231733 15.0305576,30.6231733 C16.4723113,30.7230689 17.2312883,32.1026096 17.2312883,32.1026096 C18.5126035,34.2971816 20.5932925,33.6626305 21.4100983,33.294572 C21.5405785,32.3691023 21.912186,31.7345511 22.3215806,31.3769311 C19.1340023,31.0140919 15.7808708,29.7818372 15.7808708,24.2796451 C15.7808708,22.7108559 16.3408916,21.4313152 17.2575931,20.4259916 C17.1112466,20.0613779 16.6168833,18.6004175 17.3995555,16.6241127 C17.3995555,16.6241127 18.6037309,16.2385177 21.3487205,18.0965553 C22.4932925,17.776618 23.721163,17.6188935 24.9420399,17.6136743 C26.1619772,17.6189979 27.3907873,17.7783925 28.5371338,18.0983299 C31.2769042,16.2385177 32.4828541,16.6258873 32.4828541,16.6258873 C33.2681359,18.6039666 32.773877,20.0632568 32.626591,20.426096 C33.5468415,21.4313152 34.1024783,22.7109603 34.1024783,24.2797495 C34.1024783,29.7960334 30.7440232,31.0107516 27.545067,31.3665971 C28.062186,31.8117954 28.5197017,32.6847599 28.5197017,34.023904 C28.5197017,35.9433194 28.5003906,37.491023 28.5003906,37.9643006 C28.5003906,38.3464509 28.7615597,38.7934238 29.4890127,38.6531315 C35.1911004,36.7512526 39.3015388,31.3700418 39.3015388,25.0281837 C39.3015388,17.0980167 32.8722069,10.6685804 24.9422486,10.6685804 L24.9422486,10.6685804 Z" id="svg_2"></path>
            </g>
        </g>
    </g>
</svg>