<?xml version="1.0" encoding="UTF-8"?>
<svg width="50px" height="50px" viewBox="0 0 50 50" version="1.1" xmlns="http://www.w3.org/2000/svg" xmlns:xlink="http://www.w3.org/1999/xlink">
    <!-- Generator: Sketch 56.3 (81716) - https://sketch.com -->
    <title>Linkedin</title>
    <desc>Created with Sketch.</desc>
    <g id="Page-1" stroke="none" stroke-width="1" fill="none" fill-rule="evenodd">
        <g id="Mobile" transform="translate(-77.000000, -402.000000)" fill="#FFFFFF" fill-rule="nonzero">
            <g id="Linkedin" transform="translate(77.000000, 402.000000)">
                <path d="M37.5,37.5 L37.5,28.0068159 C37.5,23.1066772 34.8903311,20.8333333 31.5053532,20.8333333 C28.776777,20.8333333 27.5386313,22.3998823 26.8046358,23.4886477 L26.8046358,21.2641183 L21.6666667,21.2641183 L21.6666667,37.5 L26.8046358,37.5 L26.8046358,28.2455474 C26.8046358,27.7679775 26.8683885,27.2999141 27.009106,26.9560766 C27.3841777,26.00083 28.2743046,25.0170637 29.6996192,25.0170637 C31.5655408,25.0170637 32.3620309,26.4785067 32.3620309,28.6181182 L32.3620309,37.5 L37.5,37.5 Z" id="svg_1"></path>
                <path d="M16.2648458,12.5 C14.4881013,12.5 13.3333333,13.756258 13.3333333,15.4166667 C13.3333333,17.0472782 14.4585202,18.3333333 16.1957495,18.3333333 L16.2351542,18.3333333 C18.0414798,18.3333333 19.1666667,17.0472782 19.1666667,15.4166667 C19.1272619,13.7463627 18.0415902,12.5 16.2648458,12.5 Z" id="svg_2"></path>
                <rect id="svg_3" x="14.1666667" y="20.8333333" width="5" height="15.8333333"></rect>
                <path d="M25,0 C11.192887,0 0,11.192887 0,25 C0,38.807113 11.192887,50 25,50 C38.807113,50 50,38.807113 50,25 C50,11.192887 38.807113,0 25,0 Z M41.5682008,41.5682008 C37.1426778,45.9937238 31.258682,48.4309623 25,48.4309623 C18.741318,48.4309623 12.8573222,45.9937238 8.43179916,41.5682008 C4.00627615,37.1426778 1.56903766,31.258682 1.56903766,25 C1.56903766,18.741318 4.00627615,12.8573222 8.43179916,8.43179916 C12.8573222,4.00627615 18.741318,1.56903766 25,1.56903766 C31.258682,1.56903766 37.1426778,4.00627615 41.5682008,8.43179916 C45.9937238,12.8573222 48.4309623,18.741318 48.4309623,25 C48.4309623,31.258682 45.9937238,37.1426778 41.5682008,41.5682008 Z" id="svg_4"></path>
            </g>
        </g>
    </g>
</svg>