<?xml version="1.0" encoding="UTF-8"?>
<svg width="50px" height="50px" viewBox="0 0 50 50" version="1.1" xmlns="http://www.w3.org/2000/svg" xmlns:xlink="http://www.w3.org/1999/xlink">
    <!-- Generator: Sketch 56.3 (81716) - https://sketch.com -->
    <title>Mail</title>
    <desc>Created with Sketch.</desc>
    <g id="Page-1" stroke="none" stroke-width="1" fill="none" fill-rule="evenodd">
        <g id="Mobile" transform="translate(-137.000000, -402.000000)" fill="#FFFFFF" fill-rule="nonzero">
            <g id="Mail" transform="translate(137.000000, 402.000000)">
                <path d="M34.4262295,16.6666667 L14.7540984,16.6666667 C12.9434426,16.6666667 11.4754098,18.16 11.4754098,20 L11.4754098,30.8333333 C11.4754098,32.6741667 12.9434426,34.1666667 14.7540984,34.1666667 L34.4262295,34.1666667 C36.2368852,34.1666667 37.704918,32.6741667 37.704918,30.8333333 L37.704918,20 C37.704918,18.16 36.2368852,16.6666667 34.4262295,16.6666667 Z M13.1147541,21.0416667 L18.8516393,25.4166667 L13.1147541,29.7916667 L13.1147541,21.0416667 Z M36.0655738,30.8333333 C36.0655738,31.7533333 35.3295082,32.5 34.4262295,32.5 L14.7540984,32.5 C13.85,32.5 13.1147541,31.7533333 13.1147541,30.8333333 L19.5344262,25.9375 L23.1147541,28.6683333 C23.5516393,29 24.0704918,29.1683333 24.5901639,29.1683333 C25.1090164,29.1683333 25.6278689,29.0008333 26.0647541,28.6683333 L29.6459016,25.9375 L36.0655738,30.8333333 L36.0655738,30.8333333 Z M36.0655738,29.7916667 L30.3278689,25.4166667 L36.0655738,21.0416667 L36.0655738,29.7916667 Z M25.5729508,28.0016667 C25.2868852,28.22 24.947541,28.335 24.5901639,28.335 C24.2327869,28.335 23.892623,28.2191667 23.6065574,28.0016667 L20.2172131,25.4166667 L19.5344262,24.8958333 L13.1147541,20.0008333 L13.1147541,20 C13.1147541,19.0808333 13.85,18.3333333 14.7540984,18.3333333 L34.4262295,18.3333333 C35.3295082,18.3333333 36.0655738,19.0808333 36.0655738,20 L25.5729508,28.0016667 Z" id="mail"></path>
                <path d="M24.9565058,0.0550557552 C11.4040913,0.0550557552 0.417678344,11.2245756 0.417678344,25.0028637 C0.417678344,38.7811518 11.4040913,49.9506716 24.9565058,49.9506716 C38.5089203,49.9506716 49.4953333,38.7811518 49.4953333,25.0028637 C49.4953333,11.2245756 38.5089203,0.0550557552 24.9565058,0.0550557552 Z M41.2190747,41.5364754 C36.8751889,45.9527593 31.0997345,48.3849096 24.9565058,48.3849096 C18.8132771,48.3849096 13.0378228,45.9527593 8.69393694,41.5364754 C4.35005111,37.1201915 1.95777212,31.2484796 1.95777212,25.0028637 C1.95777212,18.7572478 4.35005111,12.8855359 8.69393694,8.469252 C13.0378228,4.05296807 18.8132771,1.62081776 24.9565058,1.62081776 C31.0997345,1.62081776 36.8751889,4.05296807 41.2190747,8.469252 C45.5629605,12.8855359 47.9552395,18.7572478 47.9552395,25.0028637 C47.9552395,31.2484796 45.5629605,37.1201915 41.2190747,41.5364754 Z" id="svg_1"></path>
            </g>
        </g>
    </g>
</svg>