<?xml version="1.0" encoding="UTF-8"?>
<svg width="50px" height="50px" viewBox="0 0 50 50" version="1.1" xmlns="http://www.w3.org/2000/svg" xmlns:xlink="http://www.w3.org/1999/xlink">
    <!-- Generator: Sketch 56.3 (81716) - https://sketch.com -->
    <title>Phone</title>
    <desc>Created with Sketch.</desc>
    <g id="Page-1" stroke="none" stroke-width="1" fill="none" fill-rule="evenodd">
        <g id="Mobile" transform="translate(-257.000000, -400.000000)" fill="#FFFFFF" fill-rule="nonzero">
            <g id="Phone" transform="translate(257.000000, 400.000000)">
                <path d="M19.3326596,10.8333333 L29.8340071,10.8333333 C31.7803256,10.8333333 33.3333333,12.4142823 33.3333333,14.3644818 L33.3333333,35.6355182 C33.3333333,37.5826318 31.7666318,39.1666667 29.8340071,39.1666667 L19.3326596,39.1666667 C17.3863411,39.1666667 15.8333333,37.5857177 15.8333333,35.6355182 L15.8333333,14.3644818 C15.8333333,12.4173682 17.4000348,10.8333333 19.3326596,10.8333333 Z M18.3333333,16.6666667 L18.3333333,34.1666667 L31.6666667,34.1666667 L31.6666667,16.6666667 L18.3333333,16.6666667 Z M22.5,35.8333333 L22.5,37.5 L26.6666667,37.5 L26.6666667,35.8333333 L22.5,35.8333333 Z M21.6666667,12.5 L21.6666667,14.1666667 L28.3333333,14.1666667 L28.3333333,12.5 L21.6666667,12.5 Z" id="Rectangle-129"></path>
                <path d="M24.9944407,0.0521920668 C11.2161526,0.0521920668 0.0466327766,11.2217119 0.0466327766,25 C0.0466327766,38.7782881 11.2161526,49.9478079 24.9944407,49.9478079 C38.7727288,49.9478079 49.9422486,38.7782881 49.9422486,25 C49.9422486,11.2217119 38.7727288,0.0521920668 24.9944407,0.0521920668 Z M41.5280524,41.5336117 C37.1117685,45.9498956 31.2400566,48.3820459 24.9944407,48.3820459 C18.7488248,48.3820459 12.8771129,45.9498956 8.46082902,41.5336117 C4.04454509,37.1173278 1.61239478,31.2456159 1.61239478,25 C1.61239478,18.7543841 4.04454509,12.8826722 8.46082902,8.46638831 C12.8771129,4.05010438 18.7488248,1.61795407 24.9944407,1.61795407 C31.2400566,1.61795407 37.1117685,4.05010438 41.5280524,8.46638831 C45.9443363,12.8826722 48.3764866,18.7543841 48.3764866,25 C48.3764866,31.2456159 45.9443363,37.1173278 41.5280524,41.5336117 Z" id="svg_1"></path>
            </g>
        </g>
    </g>
</svg>